<svg width="370" height="129" viewBox="0 0 370 129" fill="none" xmlns="http://www.w3.org/2000/svg">
<path d="M4.745 43.776H26.572C31.828 43.776 36.4757 44.8223 40.515 46.915C44.603 49.0077 47.7663 51.9277 50.005 55.675C52.2923 59.4223 53.436 63.705 53.436 68.523C53.436 73.5843 52.3167 78.0373 50.078 81.882C47.888 85.7267 44.749 88.7197 40.661 90.861C36.6217 92.9537 31.9253 94 26.572 94H4.745V43.776ZM25.842 80.86C29.492 80.86 32.266 79.7163 34.164 77.429C36.1107 75.093 37.084 72.0757 37.084 68.377C37.084 64.873 36.135 62.099 34.237 60.055C32.3877 57.9623 29.5893 56.916 25.842 56.916H20.878V80.86H25.842ZM72.246 94.584C68.158 94.584 64.9704 93.27 62.683 90.642C60.3957 88.014 59.252 84.437 59.252 79.911V57.427H74.728V79.254C74.728 80.3733 75.02 81.2493 75.604 81.882C76.2367 82.466 77.0397 82.758 78.013 82.758C78.9864 82.758 79.984 82.466 81.006 81.882L81.809 92.029C80.7384 92.8563 79.327 93.489 77.575 93.927C75.8717 94.365 74.0954 94.584 72.246 94.584ZM66.99 51.952C64.7027 51.952 62.756 51.2463 61.15 49.835C59.5927 48.375 58.814 46.5987 58.814 44.506C58.814 42.4133 59.6414 40.6613 61.296 39.25C62.9507 37.8387 64.8487 37.133 66.99 37.133C69.2287 37.133 71.151 37.863 72.757 39.323C74.4117 40.783 75.239 42.5107 75.239 44.506C75.239 46.6473 74.4117 48.4237 72.757 49.835C71.1024 51.2463 69.18 51.952 66.99 51.952ZM98.6892 94.584C93.5792 94.584 89.1018 93.8297 85.2572 92.321L86.9362 83.634C90.4402 84.8993 93.8468 85.532 97.1562 85.532C99.5895 85.532 100.806 84.8507 100.806 83.488C100.806 82.8067 100.441 82.247 99.7112 81.809C99.0298 81.371 97.7158 80.9817 95.7692 80.641C91.7298 79.8623 88.8098 78.5483 87.0092 76.699C85.2572 74.8497 84.3812 72.2217 84.3812 68.815C84.5758 64.9703 86.1088 62.026 88.9802 59.982C91.8515 57.938 95.7692 56.916 100.733 56.916C103.264 56.916 105.429 57.0863 107.23 57.427C109.079 57.719 110.758 58.23 112.267 58.96L110.734 67.647C109.323 67.1117 107.765 66.698 106.062 66.406C104.407 66.114 103.02 65.968 101.901 65.968C100.246 65.968 99.1028 66.1383 98.4702 66.479C97.8375 66.8197 97.5212 67.282 97.5212 67.866C97.5212 68.9367 98.7378 69.691 101.171 70.129C105.6 70.9077 108.909 72.2703 111.099 74.217C113.289 76.1637 114.384 78.816 114.384 82.174C114.384 86.0187 113.021 89.0603 110.296 91.299C107.619 93.489 103.75 94.584 98.6892 94.584Z" fill="#E7BA1D"/>
<path d="M132.628 94.584C128.491 94.584 125.279 93.2943 122.992 90.715C120.753 88.087 119.634 84.51 119.634 79.984V45.893L135.037 43.63V78.889C135.037 80.2517 135.353 81.2493 135.986 81.882C136.667 82.466 137.835 82.758 139.49 82.758C140.707 82.758 141.899 82.466 143.067 81.882L143.578 92.102C140.317 93.7567 136.667 94.584 132.628 94.584Z" fill="#EC8851"/>
<path d="M163.502 94.584C160.338 94.584 157.37 93.7567 154.596 92.102C151.87 90.3987 149.68 88.1113 148.026 85.24C146.371 82.32 145.544 79.0837 145.544 75.531C145.544 72.027 146.371 68.8637 148.026 66.041C149.68 63.1697 151.895 60.931 154.669 59.325C157.443 57.719 160.387 56.916 163.502 56.916C166.032 56.916 168.368 57.6217 170.51 59.033C172.7 60.4443 174.354 62.5613 175.474 65.384V56.916H190.804V94H175.474V87.211C173.04 92.1263 169.05 94.584 163.502 94.584ZM168.247 83.05C170.193 83.05 171.848 82.3687 173.211 81.006C174.622 79.5947 175.376 77.94 175.474 76.042V75.458C175.376 73.5113 174.598 71.8567 173.138 70.494C171.726 69.1313 170.096 68.45 168.247 68.45C166.203 68.45 164.451 69.18 162.991 70.64C161.579 72.0513 160.874 73.7547 160.874 75.75C160.874 77.794 161.604 79.5217 163.064 80.933C164.524 82.3443 166.251 83.05 168.247 83.05Z" fill="#ED3A65"/>
<path d="M198.198 57.938H212.871V65.384C215.694 59.7387 220.171 56.916 226.303 56.916C230.975 56.916 234.625 58.595 237.253 61.953C239.93 65.2623 241.268 69.8613 241.268 75.75V94H225.938V74.217C225.938 72.1243 225.476 70.5183 224.551 69.399C223.675 68.2797 222.434 67.72 220.828 67.72C219.66 67.72 218.516 68.1093 217.397 68.888C216.278 69.618 215.353 70.6887 214.623 72.1C213.942 73.5113 213.601 75.1173 213.601 76.918V94H198.198V57.938Z" fill="#E450A9"/>
<path d="M264.301 94.584C260.992 94.584 257.974 93.708 255.249 91.956C252.572 90.204 250.455 87.8923 248.898 85.021C247.341 82.101 246.562 79.0107 246.562 75.75C246.562 72.2947 247.365 69.1313 248.971 66.26C250.626 63.34 252.816 61.0527 255.541 59.398C258.315 57.7433 261.259 56.916 264.374 56.916C267.197 56.916 269.581 57.5 271.528 58.668C273.523 59.836 275.129 61.7097 276.346 64.289V45.893L291.749 43.63V94H276.346V87.211C274.059 92.1263 270.044 94.584 264.301 94.584ZM269.119 83.05C271.163 83.05 272.866 82.32 274.229 80.86C275.64 79.4 276.346 77.6967 276.346 75.75V75.458C276.346 73.56 275.616 71.9297 274.156 70.567C272.696 69.1557 271.017 68.45 269.119 68.45C267.075 68.45 265.347 69.18 263.936 70.64C262.573 72.0513 261.892 73.7547 261.892 75.75C261.892 77.794 262.598 79.5217 264.009 80.933C265.469 82.3443 267.172 83.05 269.119 83.05Z" fill="#9057BD"/>
<path d="M312.062 94.584C307.974 94.584 304.787 93.27 302.499 90.642C300.212 88.014 299.068 84.437 299.068 79.911V57.427H314.544V79.254C314.544 80.3733 314.836 81.2493 315.42 81.882C316.053 82.466 316.856 82.758 317.829 82.758C318.803 82.758 319.8 82.466 320.822 81.882L321.625 92.029C320.555 92.8563 319.143 93.489 317.391 93.927C315.688 94.365 313.912 94.584 312.062 94.584ZM306.806 51.952C304.519 51.952 302.572 51.2463 300.966 49.835C299.409 48.375 298.63 46.5987 298.63 44.506C298.63 42.4133 299.458 40.6613 301.112 39.25C302.767 37.8387 304.665 37.133 306.806 37.133C309.045 37.133 310.967 37.863 312.573 39.323C314.228 40.783 315.055 42.5107 315.055 44.506C315.055 46.6473 314.228 48.4237 312.573 49.835C310.919 51.2463 308.996 51.952 306.806 51.952Z" fill="#14A9BD"/>
<path d="M342.01 94.584C338.846 94.584 335.878 93.7567 333.104 92.102C330.378 90.3987 328.188 88.1113 326.534 85.24C324.879 82.32 324.052 79.0837 324.052 75.531C324.052 72.027 324.879 68.8637 326.534 66.041C328.188 63.1697 330.403 60.931 333.177 59.325C335.951 57.719 338.895 56.916 342.01 56.916C344.54 56.916 346.876 57.6217 349.018 59.033C351.208 60.4443 352.862 62.5613 353.982 65.384V56.916H369.312V94H353.982V87.211C351.548 92.1263 347.558 94.584 342.01 94.584ZM346.755 83.05C348.701 83.05 350.356 82.3687 351.719 81.006C353.13 79.5947 353.884 77.94 353.982 76.042V75.458C353.884 73.5113 353.106 71.8567 351.646 70.494C350.234 69.1313 348.604 68.45 346.755 68.45C344.711 68.45 342.959 69.18 341.499 70.64C340.087 72.0513 339.382 73.7547 339.382 75.75C339.382 77.794 340.112 79.5217 341.572 80.933C343.032 82.3443 344.759 83.05 346.755 83.05Z" fill="#2DC071"/>
</svg>
