<svg width="40" height="40" viewBox="0 0 40 40" fill="none" xmlns="http://www.w3.org/2000/svg">
<mask id="mask0_489_2106" style="mask-type:alpha" maskUnits="userSpaceOnUse" x="0" y="0" width="40" height="40">
<rect width="40" height="40" fill="#D9D9D9"/>
</mask>
<g mask="url(#mask0_489_2106)">
<path d="M14.6667 35H8.33333C7.41667 35 6.63167 34.6739 5.97833 34.0217C5.32611 33.3683 5 32.5833 5 31.6667V25.3333C6.33333 25.3333 7.5 24.91 8.5 24.0633C9.5 23.2156 10 22.1389 10 20.8333C10 19.5278 9.5 18.4511 8.5 17.6033C7.5 16.7567 6.33333 16.3333 5 16.3333V10C5 9.08333 5.32611 8.29889 5.97833 7.64667C6.63167 6.99333 7.41667 6.66667 8.33333 6.66667H15C15 5.5 15.4028 4.51389 16.2083 3.70833C17.0139 2.90278 18 2.5 19.1667 2.5C20.3333 2.5 21.3194 2.90278 22.125 3.70833C22.9306 4.51389 23.3333 5.5 23.3333 6.66667H30C30.9167 6.66667 31.7017 6.99333 32.355 7.64667C33.0072 8.29889 33.3333 9.08333 33.3333 10V16.6667C34.5 16.6667 35.4861 17.0694 36.2917 17.875C37.0972 18.6806 37.5 19.6667 37.5 20.8333C37.5 22 37.0972 22.9861 36.2917 23.7917C35.4861 24.5972 34.5 25 33.3333 25V31.6667C33.3333 32.5833 33.0072 33.3683 32.355 34.0217C31.7017 34.6739 30.9167 35 30 35H23.6667C23.6667 33.6111 23.2294 32.4306 22.355 31.4583C21.4794 30.4861 20.4167 30 19.1667 30C17.9167 30 16.8544 30.4861 15.98 31.4583C15.1044 32.4306 14.6667 33.6111 14.6667 35ZM8.33333 31.6667H11.875C12.5417 29.8333 13.6111 28.5417 15.0833 27.7917C16.5556 27.0417 17.9167 26.6667 19.1667 26.6667C20.4167 26.6667 21.7778 27.0417 23.25 27.7917C24.7222 28.5417 25.7917 29.8333 26.4583 31.6667H30V21.6667H33.3333C33.5556 21.6667 33.75 21.5833 33.9167 21.4167C34.0833 21.25 34.1667 21.0556 34.1667 20.8333C34.1667 20.6111 34.0833 20.4167 33.9167 20.25C33.75 20.0833 33.5556 20 33.3333 20H30V10H20V6.66667C20 6.44444 19.9167 6.25 19.75 6.08333C19.5833 5.91667 19.3889 5.83333 19.1667 5.83333C18.9444 5.83333 18.75 5.91667 18.5833 6.08333C18.4167 6.25 18.3333 6.44444 18.3333 6.66667V10H8.33333V13.6667C9.83333 14.2222 11.0417 15.1528 11.9583 16.4583C12.875 17.7639 13.3333 19.2222 13.3333 20.8333C13.3333 22.4167 12.875 23.8611 11.9583 25.1667C11.0417 26.4722 9.83333 27.4167 8.33333 28V31.6667Z" fill="#14A9BD"/>
</g>
</svg>
