<svg width="44" height="44" viewBox="0 0 44 44" fill="none" xmlns="http://www.w3.org/2000/svg">
<mask id="mask0_489_702" style="mask-type:alpha" maskUnits="userSpaceOnUse" x="0" y="0" width="44" height="44">
<rect width="44" height="44" fill="#D9D9D9"/>
</mask>
<g mask="url(#mask0_489_702)">
<path d="M27.1055 24.521C26.0117 24.521 25.0872 24.1434 24.332 23.3882C23.5768 22.633 23.1992 21.7085 23.1992 20.6147C23.1992 19.521 23.5768 18.5965 24.332 17.8413C25.0872 17.0861 26.0117 16.7085 27.1055 16.7085C28.1992 16.7085 29.1237 17.0861 29.8789 17.8413C30.6341 18.5965 31.0117 19.521 31.0117 20.6147C31.0117 21.7085 30.6341 22.633 29.8789 23.3882C29.1237 24.1434 28.1992 24.521 27.1055 24.521ZM19.293 32.3335V30.146C19.293 29.521 19.4555 28.9418 19.7805 28.4085C20.1065 27.8741 20.569 27.4897 21.168 27.2554C22.1055 26.8647 23.0758 26.572 24.0789 26.3772C25.081 26.1814 26.0898 26.0835 27.1055 26.0835C28.1211 26.0835 29.1305 26.1814 30.1336 26.3772C31.1357 26.572 32.1055 26.8647 33.043 27.2554C33.6419 27.4897 34.1044 27.8741 34.4305 28.4085C34.7555 28.9418 34.918 29.521 34.918 30.146V32.3335H19.293ZM16.168 19.8335C14.4492 19.8335 12.9779 19.2215 11.7539 17.9976C10.5299 16.7736 9.91797 15.3022 9.91797 13.5835C9.91797 11.8647 10.5299 10.3934 11.7539 9.16943C12.9779 7.94548 14.4492 7.3335 16.168 7.3335C17.8867 7.3335 19.3581 7.94548 20.582 9.16943C21.806 10.3934 22.418 11.8647 22.418 13.5835C22.418 15.3022 21.806 16.7736 20.582 17.9976C19.3581 19.2215 17.8867 19.8335 16.168 19.8335ZM3.66797 32.3335V27.9585C3.66797 27.0731 3.88932 26.259 4.33203 25.5163C4.77474 24.7746 5.38672 24.2085 6.16797 23.8179C7.73047 23.0366 9.35182 22.4377 11.032 22.021C12.7112 21.6043 14.4232 21.396 16.168 21.396C17.0794 21.396 17.9909 21.4741 18.9023 21.6304C19.8138 21.7866 20.7253 21.9689 21.6367 22.1772L18.9805 24.8335C18.5117 24.7033 18.043 24.6184 17.5742 24.5788C17.1055 24.5403 16.6367 24.521 16.168 24.521C14.6576 24.521 13.1799 24.7033 11.7352 25.0679C10.2893 25.4325 8.90234 25.9533 7.57422 26.6304C7.3138 26.7606 7.11849 26.9429 6.98828 27.1772C6.85807 27.4116 6.79297 27.672 6.79297 27.9585V29.2085H16.168V32.3335H3.66797ZM16.168 16.7085C17.0273 16.7085 17.7633 16.4022 18.3758 15.7897C18.9872 15.1783 19.293 14.4429 19.293 13.5835C19.293 12.7241 18.9872 11.9887 18.3758 11.3772C17.7633 10.7647 17.0273 10.4585 16.168 10.4585C15.3086 10.4585 14.5732 10.7647 13.9617 11.3772C13.3492 11.9887 13.043 12.7241 13.043 13.5835C13.043 14.4429 13.3492 15.1783 13.9617 15.7897C14.5732 16.4022 15.3086 16.7085 16.168 16.7085Z" fill="#9057BD"/>
</g>
</svg>
