<svg width="370" height="68" viewBox="0 0 370 68" fill="none" xmlns="http://www.w3.org/2000/svg">
<path d="M3.1416 13.8125H24.9561C29.0195 13.8125 32.7028 14.4303 36.0059 15.666C39.3089 16.8779 42.1248 18.577 44.4536 20.7632C46.8062 22.9494 48.624 25.5633 49.9072 28.605C51.1904 31.6229 51.832 34.9378 51.832 38.5498C51.832 42.3519 51.1904 45.8213 49.9072 48.958C48.6478 52.071 46.8418 54.7443 44.4893 56.978C42.1367 59.2118 39.3089 60.9465 36.0059 62.1821C32.7028 63.394 29.0195 64 24.9561 64H3.1416V13.8125ZM24.9561 50.8828C26.7858 50.8828 28.3542 50.4907 29.6611 49.7065C30.9919 48.9224 32.085 47.9243 32.9404 46.7124C33.7959 45.5005 34.4256 44.1579 34.8296 42.6846C35.2336 41.2113 35.4355 39.7855 35.4355 38.4072C35.4355 36.7438 35.1742 35.2111 34.6514 33.8091C34.1523 32.4071 33.4395 31.1951 32.5127 30.1733C31.5859 29.1515 30.481 28.3555 29.1978 27.7852C27.9146 27.2148 26.5007 26.9297 24.9561 26.9297H19.2529V50.8828H24.9561ZM57.4282 15.3096C57.4282 14.2402 57.654 13.2541 58.1055 12.3511C58.5807 11.4481 59.1986 10.6758 59.959 10.0342C60.7194 9.36882 61.5986 8.85791 62.5967 8.50146C63.5947 8.14502 64.6284 7.9668 65.6978 7.9668C66.9334 7.9668 68.0503 8.19255 69.0483 8.64404C70.0701 9.07178 70.9375 9.64209 71.6504 10.355C72.3633 11.0441 72.9098 11.8283 73.29 12.7075C73.694 13.563 73.896 14.4303 73.896 15.3096C73.896 16.4027 73.6702 17.4007 73.2188 18.3037C72.7673 19.2067 72.1613 19.9909 71.4009 20.6562C70.6405 21.2979 69.7612 21.8088 68.7632 22.189C67.7889 22.5454 66.7671 22.7236 65.6978 22.7236C64.5334 22.7236 63.4403 22.5335 62.4185 22.1533C61.4204 21.7731 60.5531 21.2503 59.8164 20.585C59.0798 19.8958 58.4976 19.1117 58.0698 18.2324C57.6421 17.3294 57.4282 16.3551 57.4282 15.3096ZM80.2407 62.0752C77.3654 63.7386 74.1812 64.5703 70.688 64.5703C68.6206 64.5703 66.779 64.2257 65.1631 63.5366C63.5472 62.8475 62.1808 61.8732 61.064 60.6138C59.9709 59.3306 59.1392 57.786 58.5688 55.98C57.9985 54.174 57.7134 52.166 57.7134 49.9561V27.4287H73.1831V49.2432C73.1831 50.4076 73.492 51.2868 74.1099 51.8809C74.7277 52.4512 75.5119 52.7363 76.4624 52.7363C77.4129 52.7363 78.411 52.4512 79.4565 51.8809L80.2407 62.0752ZM100.309 35.9834C97.4095 35.9834 95.96 36.4824 95.96 37.4805C95.96 37.8607 96.0669 38.2052 96.2808 38.5142C96.4946 38.7993 96.7798 39.0607 97.1362 39.2983C97.4927 39.5122 97.8848 39.6904 98.3125 39.833C98.7402 39.9756 99.168 40.0706 99.5957 40.1182C101.473 40.4033 103.208 40.8429 104.8 41.437C106.416 42.0073 107.806 42.7796 108.97 43.7539C110.158 44.7282 111.085 45.9282 111.75 47.354C112.44 48.756 112.784 50.4313 112.784 52.3799C112.784 54.3047 112.44 56.0275 111.75 57.5483C111.085 59.0454 110.146 60.3167 108.935 61.3623C107.723 62.4079 106.297 63.2039 104.657 63.7505C103.018 64.297 101.235 64.5703 99.3105 64.5703C96.1976 64.5703 93.346 64.4277 90.7559 64.1426C88.1895 63.8574 85.8369 63.2396 83.6982 62.2891L85.3379 53.877C86.1221 54.0908 86.7993 54.2809 87.3696 54.4473C87.9637 54.6136 88.4508 54.7324 88.8311 54.8037C89.1875 54.875 89.639 54.9701 90.1855 55.0889C90.7321 55.1839 91.3143 55.279 91.9321 55.374C92.5737 55.4691 93.2153 55.5522 93.8569 55.6235C94.4985 55.6948 95.0807 55.7305 95.6035 55.7305C98.0273 55.7305 99.2393 55.1602 99.2393 54.0195C99.168 53.568 98.9779 53.1759 98.6689 52.8433C98.3838 52.4868 98.0155 52.1898 97.564 51.9521C97.1125 51.6908 96.5897 51.4769 95.9956 51.3105C95.4253 51.1442 94.8193 51.0016 94.1777 50.8828C92.3242 50.5264 90.6846 50.0511 89.2588 49.457C87.8568 48.863 86.6805 48.1025 85.73 47.1758C84.7795 46.2253 84.0547 45.0728 83.5557 43.7183C83.0804 42.34 82.8428 40.7122 82.8428 38.835C82.9378 36.6963 83.3893 34.8784 84.1973 33.3813C85.0052 31.8605 86.0983 30.6248 87.4766 29.6743C88.8548 28.7 90.4707 27.999 92.3242 27.5713C94.2015 27.1198 96.2451 26.894 98.4551 26.894C100.76 26.894 102.934 27.0247 104.978 27.2861C107.022 27.5238 108.935 28.0703 110.717 28.9258L109.148 37.623C105.584 36.5299 102.637 35.9834 100.309 35.9834ZM142.12 62.0752C138.817 63.7386 135.157 64.5703 131.141 64.5703C129.074 64.5703 127.232 64.2376 125.616 63.5723C124 62.8831 122.634 61.9089 121.517 60.6494C120.424 59.3662 119.592 57.8335 119.022 56.0513C118.452 54.2453 118.167 52.2135 118.167 49.9561V15.8799L133.565 13.5986V48.8867C133.565 50.1937 133.981 51.168 134.812 51.8096C135.644 52.4274 136.773 52.7363 138.199 52.7363C139.292 52.7363 140.409 52.4512 141.549 51.8809L142.12 62.0752ZM173.95 57.2275C172.81 59.6038 171.265 61.4217 169.316 62.6812C167.368 63.9406 164.92 64.5703 161.974 64.5703C159.597 64.5703 157.328 64.0951 155.166 63.1445C153.003 62.1702 151.102 60.8395 149.462 59.1523C147.823 57.4414 146.516 55.4215 145.542 53.0928C144.567 50.764 144.08 48.2332 144.08 45.5005C144.08 42.7915 144.567 40.2964 145.542 38.0151C146.54 35.7339 147.858 33.7734 149.498 32.1338C151.161 30.4704 153.062 29.1872 155.201 28.2842C157.364 27.3574 159.621 26.894 161.974 26.894C163.186 26.894 164.374 27.0604 165.538 27.3931C166.726 27.702 167.843 28.2129 168.889 28.9258C169.958 29.6149 170.92 30.4941 171.776 31.5635C172.655 32.6328 173.38 33.916 173.95 35.4131V26.894H189.277V64H173.95V57.2275ZM173.95 45.4648C173.903 44.5143 173.677 43.6113 173.273 42.7559C172.869 41.9004 172.334 41.1637 171.669 40.5459C171.027 39.9043 170.279 39.4053 169.423 39.0488C168.568 38.6686 167.677 38.4785 166.75 38.4785C165.704 38.4785 164.73 38.6805 163.827 39.0845C162.948 39.4647 162.176 39.9875 161.51 40.6528C160.869 41.2944 160.358 42.0549 159.978 42.9341C159.597 43.8133 159.407 44.752 159.407 45.75C159.407 46.7956 159.609 47.7699 160.013 48.6729C160.417 49.5521 160.952 50.3125 161.617 50.9541C162.306 51.5957 163.09 52.1066 163.97 52.4868C164.849 52.8433 165.776 53.0215 166.75 53.0215C167.748 53.0215 168.675 52.8314 169.53 52.4512C170.386 52.071 171.134 51.5601 171.776 50.9185C172.417 50.2769 172.928 49.5402 173.309 48.7085C173.689 47.853 173.903 46.9619 173.95 46.0352V45.4648ZM196.691 27.9634H211.377V35.4131C212.803 32.5378 214.632 30.3991 216.866 28.9971C219.124 27.5951 221.761 26.894 224.779 26.894C227.203 26.894 229.342 27.3455 231.195 28.2485C233.049 29.1515 234.605 30.4347 235.865 32.0981C237.148 33.7378 238.11 35.722 238.752 38.0508C239.417 40.3558 239.75 42.9222 239.75 45.75V64H224.423V44.2529C224.423 43.3024 224.328 42.4232 224.138 41.6152C223.971 40.8073 223.686 40.1182 223.282 39.5479C222.902 38.9538 222.415 38.5023 221.821 38.1934C221.227 37.8607 220.502 37.6943 219.646 37.6943C218.601 37.6943 217.639 37.9557 216.759 38.4785C215.88 38.9775 215.108 39.5954 214.442 40.332C213.801 41.0687 213.278 41.841 212.874 42.6489C212.47 43.4331 212.209 44.1104 212.09 44.6807V64H196.691V27.9634ZM262.955 26.894C265.711 26.894 268.087 27.4644 270.083 28.605C272.08 29.7456 273.695 31.6348 274.931 34.2725V15.8799L290.33 13.5986V64H274.931V57.2275C273.791 59.6751 272.234 61.5168 270.262 62.7524C268.289 63.9644 265.83 64.5703 262.883 64.5703C260.341 64.5703 257.988 64.0594 255.826 63.0376C253.663 61.992 251.786 60.6019 250.194 58.8672C248.625 57.1325 247.39 55.1364 246.487 52.8789C245.584 50.5977 245.132 48.2214 245.132 45.75C245.132 43.0885 245.608 40.6053 246.558 38.3003C247.532 35.9953 248.839 33.9992 250.479 32.312C252.119 30.6248 254.008 29.306 256.146 28.3555C258.309 27.3812 260.578 26.894 262.955 26.894ZM274.931 45.4648C274.884 44.5143 274.658 43.6113 274.254 42.7559C273.85 41.9004 273.315 41.1637 272.65 40.5459C272.008 39.9043 271.26 39.4053 270.404 39.0488C269.549 38.6686 268.658 38.4785 267.731 38.4785C266.685 38.4785 265.711 38.6805 264.808 39.0845C263.929 39.4647 263.168 39.9875 262.527 40.6528C261.885 41.3182 261.374 42.0905 260.994 42.9697C260.638 43.849 260.459 44.7757 260.459 45.75C260.459 46.7956 260.65 47.758 261.03 48.6372C261.434 49.5164 261.968 50.2887 262.634 50.9541C263.299 51.5957 264.071 52.1066 264.951 52.4868C265.83 52.8433 266.757 53.0215 267.731 53.0215C268.753 53.0215 269.703 52.8195 270.583 52.4155C271.462 52.0116 272.222 51.4769 272.864 50.8115C273.505 50.1462 274.004 49.3739 274.361 48.4946C274.741 47.6154 274.931 46.7005 274.931 45.75V45.4648ZM297.387 15.3096C297.387 14.2402 297.613 13.2541 298.064 12.3511C298.54 11.4481 299.158 10.6758 299.918 10.0342C300.678 9.36882 301.558 8.85791 302.556 8.50146C303.554 8.14502 304.587 7.9668 305.657 7.9668C306.892 7.9668 308.009 8.19255 309.007 8.64404C310.029 9.07178 310.896 9.64209 311.609 10.355C312.322 11.0441 312.869 11.8283 313.249 12.7075C313.653 13.563 313.855 14.4303 313.855 15.3096C313.855 16.4027 313.629 17.4007 313.178 18.3037C312.726 19.2067 312.12 19.9909 311.36 20.6562C310.599 21.2979 309.72 21.8088 308.722 22.189C307.748 22.5454 306.726 22.7236 305.657 22.7236C304.492 22.7236 303.399 22.5335 302.377 22.1533C301.379 21.7731 300.512 21.2503 299.775 20.585C299.039 19.8958 298.457 19.1117 298.029 18.2324C297.601 17.3294 297.387 16.3551 297.387 15.3096ZM320.2 62.0752C317.324 63.7386 314.14 64.5703 310.647 64.5703C308.58 64.5703 306.738 64.2257 305.122 63.5366C303.506 62.8475 302.14 61.8732 301.023 60.6138C299.93 59.3306 299.098 57.786 298.528 55.98C297.958 54.174 297.672 52.166 297.672 49.9561V27.4287H313.142V49.2432C313.142 50.4076 313.451 51.2868 314.069 51.8809C314.687 52.4512 315.471 52.7363 316.421 52.7363C317.372 52.7363 318.37 52.4512 319.416 51.8809L320.2 62.0752ZM352.529 57.2275C351.389 59.6038 349.844 61.4217 347.896 62.6812C345.947 63.9406 343.499 64.5703 340.553 64.5703C338.176 64.5703 335.907 64.0951 333.745 63.1445C331.582 62.1702 329.681 60.8395 328.042 59.1523C326.402 57.4414 325.095 55.4215 324.121 53.0928C323.146 50.764 322.659 48.2332 322.659 45.5005C322.659 42.7915 323.146 40.2964 324.121 38.0151C325.119 35.7339 326.438 33.7734 328.077 32.1338C329.741 30.4704 331.642 29.1872 333.78 28.2842C335.943 27.3574 338.2 26.894 340.553 26.894C341.765 26.894 342.953 27.0604 344.117 27.3931C345.305 27.702 346.422 28.2129 347.468 28.9258C348.537 29.6149 349.5 30.4941 350.355 31.5635C351.234 32.6328 351.959 33.916 352.529 35.4131V26.894H367.856V64H352.529V57.2275ZM352.529 45.4648C352.482 44.5143 352.256 43.6113 351.852 42.7559C351.448 41.9004 350.913 41.1637 350.248 40.5459C349.606 39.9043 348.858 39.4053 348.002 39.0488C347.147 38.6686 346.256 38.4785 345.329 38.4785C344.284 38.4785 343.309 38.6805 342.406 39.0845C341.527 39.4647 340.755 39.9875 340.089 40.6528C339.448 41.2944 338.937 42.0549 338.557 42.9341C338.176 43.8133 337.986 44.752 337.986 45.75C337.986 46.7956 338.188 47.7699 338.592 48.6729C338.996 49.5521 339.531 50.3125 340.196 50.9541C340.885 51.5957 341.67 52.1066 342.549 52.4868C343.428 52.8433 344.355 53.0215 345.329 53.0215C346.327 53.0215 347.254 52.8314 348.109 52.4512C348.965 52.071 349.713 51.5601 350.355 50.9185C350.997 50.2769 351.507 49.5402 351.888 48.7085C352.268 47.853 352.482 46.9619 352.529 46.0352V45.4648Z" fill="white"/>
</svg>
