<svg width="236" height="239" viewBox="0 0 236 239" fill="none" xmlns="http://www.w3.org/2000/svg">
<path d="M226.756 184.113C199.472 237.789 127.609 238.684 117.98 238.655C106.429 238.623 37.3132 236.931 9.85172 183.999C-14.334 137.386 12.6624 87.4163 20.3619 73.1653C25.8757 62.9574 60.7025 -1.50492 120.151 0.0268562C175.306 1.44818 206.384 58.5132 214.362 73.1653C223.277 89.5352 249.942 138.503 226.759 184.11L226.756 184.113Z" fill="#F8C950"/>
<path d="M58.1667 137.692C74.1327 137.692 87.0757 124.749 87.0757 108.783C87.0757 92.8167 74.1327 79.8738 58.1667 79.8738C42.2008 79.8738 29.2578 92.8167 29.2578 108.783C29.2578 124.749 42.2008 137.692 58.1667 137.692Z" fill="white"/>
<path d="M178.077 137.692C194.043 137.692 206.986 124.749 206.986 108.783C206.986 92.8167 194.043 79.8738 178.077 79.8738C162.111 79.8738 149.168 92.8167 149.168 108.783C149.168 124.749 162.111 137.692 178.077 137.692Z" fill="white"/>
<path d="M61.6695 128.62C72.6254 128.62 81.507 119.739 81.507 108.783C81.507 97.8268 72.6254 88.9453 61.6695 88.9453C50.7136 88.9453 41.832 97.8268 41.832 108.783C41.832 119.739 50.7136 128.62 61.6695 128.62Z" fill="#7C74A0"/>
<path d="M174.627 128.62C185.582 128.62 194.464 119.739 194.464 108.783C194.464 97.8268 185.582 88.9453 174.627 88.9453C163.671 88.9453 154.789 97.8268 154.789 108.783C154.789 119.739 163.671 128.62 174.627 128.62Z" fill="#7C74A0"/>
<path d="M66.8551 102.467C68.8504 102.467 70.468 100.849 70.468 98.8539C70.468 96.8585 68.8504 95.241 66.8551 95.241C64.8597 95.241 63.2422 96.8585 63.2422 98.8539C63.2422 100.849 64.8597 102.467 66.8551 102.467Z" fill="white"/>
<path d="M183.425 102.467C185.421 102.467 187.038 100.849 187.038 98.8539C187.038 96.8585 185.421 95.241 183.425 95.241C181.43 95.241 179.812 96.8585 179.812 98.8539C179.812 100.849 181.43 102.467 183.425 102.467Z" fill="white"/>
<path d="M82.4804 143.231C80.1871 143.231 78.6031 145.557 79.4721 147.679C85.3609 162.02 100.597 172.236 118.464 172.236C136.331 172.236 151.57 162.02 157.456 147.679C158.328 145.557 156.741 143.231 154.448 143.231H82.4746H82.4804Z" fill="#ED3A65"/>
<path d="M94.6523 145.039H142.277C142.277 149.809 138.405 153.681 133.635 153.681H103.294C98.5239 153.681 94.6523 149.809 94.6523 145.039Z" fill="white"/>
</svg>
