<svg width="237" height="249" viewBox="0 0 237 249" fill="none" xmlns="http://www.w3.org/2000/svg">
<path d="M221.607 195.343C194.942 247.8 124.712 248.675 115.301 248.646C104.012 248.615 36.4659 246.962 9.62801 195.232C-14.0085 149.677 12.3749 100.842 19.8996 86.9146C25.2882 76.9384 59.3241 13.9399 117.423 15.4369C171.326 16.8259 201.697 72.5952 209.495 86.9146C218.207 102.913 244.266 150.768 221.61 195.34L221.607 195.343Z" fill="#F8C950"/>
<path d="M56.8462 149.976C72.4496 149.976 85.0987 137.327 85.0987 121.723C85.0987 106.12 72.4496 93.4707 56.8462 93.4707C41.2428 93.4707 28.5938 106.12 28.5938 121.723C28.5938 137.327 41.2428 149.976 56.8462 149.976Z" fill="white"/>
<path d="M174.034 149.976C189.637 149.976 202.286 137.327 202.286 121.723C202.286 106.12 189.637 93.4707 174.034 93.4707C158.43 93.4707 145.781 106.12 145.781 121.723C145.781 137.327 158.43 149.976 174.034 149.976Z" fill="white"/>
<path d="M60.2698 141.11C70.977 141.11 79.6568 132.431 79.6568 121.723C79.6568 111.016 70.977 102.336 60.2698 102.336C49.5627 102.336 40.8828 111.016 40.8828 121.723C40.8828 132.431 49.5627 141.11 60.2698 141.11Z" fill="#7C74A0"/>
<path d="M170.66 141.11C181.368 141.11 190.047 132.43 190.047 121.723C190.047 111.016 181.368 102.336 170.66 102.336C159.953 102.336 151.273 111.016 151.273 121.723C151.273 132.43 159.953 141.11 170.66 141.11Z" fill="#7C74A0"/>
<path d="M181.432 115.372C185.52 115.372 188.834 112.058 188.834 107.969C188.834 103.881 185.52 100.567 181.432 100.567C177.344 100.567 174.029 103.881 174.029 107.969C174.029 112.058 177.344 115.372 181.432 115.372Z" fill="white"/>
<path d="M162.045 144.016C168.664 144.016 174.029 138.651 174.029 132.032C174.029 125.413 168.664 120.047 162.045 120.047C155.426 120.047 150.061 125.413 150.061 132.032C150.061 138.651 155.426 144.016 162.045 144.016Z" fill="white"/>
<path d="M68.8303 115.372C72.9186 115.372 76.2329 112.058 76.2329 107.969C76.2329 103.881 72.9186 100.567 68.8303 100.567C64.742 100.567 61.4277 103.881 61.4277 107.969C61.4277 112.058 64.742 115.372 68.8303 115.372Z" fill="white"/>
<path d="M49.4434 144.016C56.0622 144.016 61.4279 138.651 61.4279 132.032C61.4279 125.413 56.0622 120.047 49.4434 120.047C42.8246 120.047 37.459 125.413 37.459 132.032C37.459 138.651 42.8246 144.016 49.4434 144.016Z" fill="white"/>
<path d="M80.6059 155.39C78.3646 155.39 76.8165 157.663 77.6659 159.736C83.4209 173.752 98.3112 183.736 115.772 183.736C133.233 183.736 148.127 173.752 153.879 159.736C154.731 157.663 153.18 155.39 150.939 155.39H80.6002H80.6059Z" fill="#ED3A65"/>
<path d="M92.5039 157.157H139.047C139.047 161.818 135.263 165.602 130.602 165.602H100.949C96.2876 165.602 92.5039 161.818 92.5039 157.157Z" fill="white"/>
<path d="M209.003 72.1208C192.641 66.1783 171.075 62.5679 147.439 62.5679C105.73 62.5679 70.4646 73.8081 58.875 89.2637H236.003C230.981 82.5684 221.513 76.6629 209.003 72.1208Z" fill="#9057BD"/>
<path d="M183.492 36.2103C178.052 30.8046 159.552 12.9515 130.631 7.5544C130.958 7.06298 131.137 6.54316 131.137 6.00629C131.137 2.88448 125.232 0.353516 117.945 0.353516C110.659 0.353516 104.754 2.88448 104.754 6.00629C104.754 6.17104 104.774 6.33011 104.805 6.49203C96.0416 7.37829 84.3754 9.75586 71.9904 15.7154C47.6324 27.4414 35.3923 45.9336 32.2591 50.9245C22.8539 65.9114 19.7264 80.3643 18.5703 89.3804C32.0035 89.3406 45.4366 89.3008 58.8726 89.2611C70.4622 73.8054 105.728 62.5652 147.436 62.5652C171.073 62.5652 192.639 66.1785 209 72.1181C202.547 55.157 189.721 42.4027 183.489 36.2074L183.492 36.2103Z" fill="#ED3A65"/>
</svg>
