<svg width="666" height="668" viewBox="0 0 666 668" fill="none" xmlns="http://www.w3.org/2000/svg">
<g filter="url(#filter0_d_479_7130)">
<path d="M129.155 625C98.6163 625 75.2903 616.943 59.1768 600.823C43.0633 584.703 35 561.377 35 530.845V121.155C35 90.6163 43.0568 67.2903 59.1768 51.1768C75.2969 35.0633 98.6229 27 129.155 27H296.252C402.554 27 484.824 53.1599 543.073 105.467C601.31 157.773 630.434 231.148 630.434 325.578C630.434 420.008 601.31 493.526 543.073 546.108C484.824 598.703 402.554 624.993 296.252 624.993H129.155V625ZM217.367 477.413H285.218C338.375 477.413 377.677 464.977 403.117 440.094C428.557 415.21 441.294 377.04 441.294 325.578C441.294 274.115 428.426 235.389 402.698 211.075C376.97 186.761 337.799 174.6 285.218 174.6H217.367V477.413Z" fill="#F8C950"/>
<path d="M117.658 526.826C153.609 526.826 182.753 497.682 182.753 461.731C182.753 425.78 153.609 396.635 117.658 396.635C81.7067 396.635 52.5625 425.78 52.5625 461.731C52.5625 497.682 81.7067 526.826 117.658 526.826Z" fill="white"/>
<path d="M498.666 526.826C534.617 526.826 563.761 497.682 563.761 461.731C563.761 425.78 534.617 396.635 498.666 396.635C462.715 396.635 433.57 425.78 433.57 461.731C433.57 497.682 462.715 526.826 498.666 526.826Z" fill="white"/>
<path d="M125.542 506.4C150.212 506.4 170.211 486.401 170.211 461.731C170.211 437.061 150.212 417.062 125.542 417.062C100.872 417.062 80.873 437.061 80.873 461.731C80.873 486.401 100.872 506.4 125.542 506.4Z" fill="#554F70"/>
<path d="M490.893 506.4C515.563 506.4 535.562 486.401 535.562 461.731C535.562 437.061 515.563 417.062 490.893 417.062C466.224 417.062 446.225 437.061 446.225 461.731C446.225 486.401 466.224 506.4 490.893 506.4Z" fill="#554F70"/>
<path d="M137.208 447.509C141.701 447.509 145.343 443.867 145.343 439.374C145.343 434.881 141.701 431.239 137.208 431.239C132.715 431.239 129.072 434.881 129.072 439.374C129.072 443.867 132.715 447.509 137.208 447.509Z" fill="white"/>
<path d="M510.696 447.509C515.189 447.509 518.831 443.867 518.831 439.374C518.831 434.881 515.189 431.239 510.696 431.239C506.203 431.239 502.561 434.881 502.561 439.374C502.561 443.867 506.203 447.509 510.696 447.509Z" fill="white"/>
<path d="M202.228 508.639C195.546 508.639 190.925 515.413 193.465 521.598C210.626 563.393 255.033 593.166 307.11 593.166C359.188 593.166 403.595 563.393 420.756 521.598C423.295 515.413 418.674 508.639 411.992 508.639H202.228Z" fill="#ED3A65"/>
<path d="M237.712 513.907H376.509V519.634C376.509 530.374 367.791 539.091 357.051 539.091H257.163C246.423 539.091 237.705 530.374 237.705 519.634V513.907H237.712Z" fill="white"/>
</g>
<defs>
<filter id="filter0_d_479_7130" x="0" y="0" width="665.434" height="668" filterUnits="userSpaceOnUse" color-interpolation-filters="sRGB">
<feFlood flood-opacity="0" result="BackgroundImageFix"/>
<feColorMatrix in="SourceAlpha" type="matrix" values="0 0 0 0 0 0 0 0 0 0 0 0 0 0 0 0 0 0 127 0" result="hardAlpha"/>
<feOffset dy="8"/>
<feGaussianBlur stdDeviation="17.5"/>
<feComposite in2="hardAlpha" operator="out"/>
<feColorMatrix type="matrix" values="0 0 0 0 0 0 0 0 0 0 0 0 0 0 0 0 0 0 0.2 0"/>
<feBlend mode="normal" in2="BackgroundImageFix" result="effect1_dropShadow_479_7130"/>
<feBlend mode="normal" in="SourceGraphic" in2="effect1_dropShadow_479_7130" result="shape"/>
</filter>
</defs>
</svg>
