<svg width="237" height="239" viewBox="0 0 237 239" fill="none" xmlns="http://www.w3.org/2000/svg">
<path d="M227.471 184.113C200.133 237.789 128.128 238.684 118.479 238.655C106.906 238.623 37.6528 236.931 10.1369 183.999C-14.0968 137.386 12.9531 87.4163 20.668 73.1653C26.1927 62.9574 61.0886 -1.50492 120.655 0.0268562C175.92 1.44818 207.059 58.5132 215.053 73.1653C223.985 89.5352 250.703 138.503 227.474 184.11L227.471 184.113Z" fill="#F8C950"/>
<path d="M58.5483 137.692C74.546 137.692 87.5146 124.749 87.5146 108.783C87.5146 92.817 74.546 79.874 58.5483 79.874C42.5507 79.874 29.582 92.817 29.582 108.783C29.582 124.749 42.5507 137.692 58.5483 137.692Z" fill="white"/>
<path d="M149.728 117.41C149.108 117.41 148.485 117.177 148.004 116.712C147.023 115.761 147.002 114.198 147.955 113.218C151.537 109.538 161.509 100.909 176.708 100.205C194.465 99.38 206.245 109.954 209.434 113.215C210.39 114.192 210.369 115.756 209.391 116.709C208.412 117.662 206.845 117.642 205.89 116.665C203.068 113.779 192.642 104.417 176.938 105.141C163.504 105.76 154.676 113.404 151.508 116.66C151.021 117.157 150.378 117.41 149.731 117.41H149.728Z" fill="#7C74A0"/>
<path d="M62.0565 128.62C73.0342 128.62 81.9333 119.739 81.9333 108.783C81.9333 97.8268 73.0342 88.9453 62.0565 88.9453C51.0788 88.9453 42.1797 97.8268 42.1797 108.783C42.1797 119.739 51.0788 128.62 62.0565 128.62Z" fill="#7C74A0"/>
<path d="M67.249 102.466C69.2483 102.466 70.869 100.849 70.869 98.8536C70.869 96.8583 69.2483 95.2407 67.249 95.2407C65.2497 95.2407 63.6289 96.8583 63.6289 98.8536C63.6289 100.849 65.2497 102.466 67.249 102.466Z" fill="white"/>
<path d="M82.9049 143.231C80.607 143.231 79.0198 145.557 79.8906 147.679C85.791 162.02 101.058 172.236 118.96 172.236C136.862 172.236 152.132 162.02 158.029 147.679C158.903 145.557 157.313 143.231 155.015 143.231H82.899H82.9049Z" fill="#ED3A65"/>
<path d="M95.1094 145.04H142.828C142.828 149.809 138.949 153.681 134.17 153.681H103.768C98.9886 153.681 95.1094 149.809 95.1094 145.04Z" fill="white"/>
<path d="M227.883 79.2721L227.283 76.4004C226.983 74.9616 225.821 73.86 224.368 73.6304L219.487 72.8602L218.476 72.5027C204.689 67.6428 190.305 65.5414 175.734 66.2593C162.308 66.9191 149.249 69.9623 136.901 75.2901C132.669 72.9619 126.419 70.5465 118.649 70.5175C118.6 70.5175 118.55 70.5175 118.501 70.5175C110.663 70.5175 104.361 72.9445 100.1 75.2901C87.752 69.9623 74.6901 66.9191 61.267 66.2593C46.6965 65.5414 32.3124 67.6428 18.5253 72.5027L17.5147 72.8602L12.6336 73.6304C11.1803 73.86 10.0183 74.9616 9.71834 76.4004L9.11839 79.2721C8.70484 81.2515 10.0358 83.1756 12.0366 83.4896L13.5859 83.7337C11.3056 92.1774 10.7639 100.758 12.0249 108.986C13.7578 120.281 18.9476 130.169 26.6362 136.831C37.8721 146.565 51.7203 147.533 56.7645 147.533C57.379 147.533 57.8654 147.519 58.1974 147.504C70.1847 146.975 81.2895 141.787 90.309 132.498C108.436 113.834 104.483 87.2972 102.8 79.4523C106.499 77.4642 111.866 75.4645 118.501 75.4645C118.544 75.4645 118.588 75.4645 118.629 75.4645C125.205 75.4906 130.529 77.4787 134.201 79.4523C132.521 87.3001 128.569 113.834 146.692 132.498C155.715 141.787 166.817 146.975 178.804 147.504C179.136 147.519 179.622 147.533 180.237 147.533C185.281 147.533 199.126 146.568 210.365 136.831C218.057 130.169 223.246 120.278 224.976 108.986C226.237 100.758 225.696 92.1774 223.415 83.7337L224.965 83.4896C226.965 83.1756 228.296 81.2515 227.883 79.2721ZM86.7501 129.056C78.6247 137.421 68.6761 142.095 57.9761 142.566C56.3044 142.639 41.3057 142.996 29.8777 133.099C18.4904 123.234 14.0257 106.242 17.4681 88.9249C18.9796 81.3242 24.8102 75.354 32.3881 73.6508C41.7601 71.5464 51.3446 70.7238 61.0195 71.1976C73.7203 71.8225 86.0803 74.671 97.7763 79.6703C99.1306 85.4224 103.985 111.309 86.7472 129.059L86.7501 129.056ZM207.121 133.099C195.696 142.999 180.697 142.642 179.022 142.566C168.322 142.095 158.374 137.424 150.248 129.056C133.013 111.309 137.868 85.4195 139.219 79.6674C150.918 74.671 163.275 71.8225 175.976 71.1947C185.648 70.718 195.232 71.5435 204.602 73.6449C212.182 75.3453 218.019 81.3213 219.53 88.9278C222.97 106.242 218.505 123.231 207.121 133.096V133.099Z" fill="#ED3A65"/>
</svg>
