<svg width="538" height="542" viewBox="0 0 538 542" fill="none" xmlns="http://www.w3.org/2000/svg">
<path d="M515.997 418.13C453.91 540.032 290.383 542.065 268.47 541.999C242.186 541.926 84.9085 538.084 22.4182 417.873C-32.6179 312.012 28.8141 198.527 46.3349 166.163C58.8819 142.98 138.132 -3.41775 273.411 0.0609919C398.921 3.28889 469.639 132.887 487.795 166.163C508.08 203.34 568.758 314.547 516.004 418.124L515.997 418.13Z" fill="#F8C950"/>
<path d="M132.36 312.706C168.692 312.706 198.144 283.312 198.144 247.052C198.144 210.793 168.692 181.398 132.36 181.398C96.0287 181.398 66.5762 210.793 66.5762 247.052C66.5762 283.312 96.0287 312.706 132.36 312.706Z" fill="white"/>
<path d="M339.436 266.644C338.027 266.644 336.611 266.116 335.52 265.06C333.291 262.901 333.245 259.35 335.408 257.125C343.543 248.768 366.19 229.17 400.709 227.572C441.035 225.698 467.789 249.712 475.032 257.118C477.201 259.336 477.155 262.888 474.933 265.053C472.71 267.218 469.152 267.172 466.982 264.954C460.573 258.399 436.895 237.137 401.231 238.781C370.72 240.187 350.673 257.548 343.477 264.941C342.372 266.07 340.911 266.644 339.442 266.644H339.436Z" fill="#554F70"/>
<path d="M140.331 292.104C165.262 292.104 185.472 271.933 185.472 247.052C185.472 222.17 165.262 202 140.331 202C115.4 202 95.1895 222.17 95.1895 247.052C95.1895 271.933 115.4 292.104 140.331 292.104Z" fill="#554F70"/>
<path d="M152.122 232.707C156.662 232.707 160.343 229.034 160.343 224.502C160.343 219.971 156.662 216.297 152.122 216.297C147.581 216.297 143.9 219.971 143.9 224.502C143.9 229.034 147.581 232.707 152.122 232.707Z" fill="white"/>
<path d="M187.679 325.287C182.46 325.287 178.855 330.567 180.833 335.386C194.233 367.956 228.905 391.158 269.562 391.158C310.219 391.158 344.896 367.956 358.29 335.386C360.274 330.567 356.663 325.287 351.444 325.287H187.666H187.679Z" fill="#ED3A65"/>
<path d="M215.395 329.393H323.767C323.767 340.225 314.957 349.018 304.103 349.018H235.058C224.205 349.018 215.395 340.225 215.395 329.393Z" fill="white"/>
<path d="M516.931 180.031L515.569 173.509C514.888 170.242 512.249 167.74 508.948 167.219L497.863 165.469L495.568 164.657C464.257 153.621 431.589 148.848 398.499 150.478C368.008 151.977 338.35 158.888 310.306 170.988C300.696 165.7 286.502 160.215 268.855 160.149C268.743 160.149 268.631 160.149 268.518 160.149C250.72 160.149 236.407 165.661 226.73 170.988C198.686 158.888 169.022 151.977 138.537 150.478C105.447 148.848 72.7798 153.621 41.4685 164.657L39.1734 165.469L28.0881 167.219C24.7877 167.74 22.1486 170.242 21.4674 173.509L20.1049 180.031C19.1657 184.527 22.1883 188.896 26.7322 189.609L30.2509 190.164C25.0721 209.34 23.8419 228.826 26.7058 247.514C30.6412 273.165 42.4276 295.622 59.8888 310.751C85.4061 332.858 116.856 335.056 128.312 335.056C129.708 335.056 130.812 335.023 131.566 334.99C158.79 333.789 184.009 322.006 204.493 300.909C245.66 258.524 236.684 198.257 232.861 180.44C241.261 175.925 253.451 171.384 268.518 171.384C268.617 171.384 268.717 171.384 268.809 171.384C283.744 171.443 295.835 175.958 304.175 180.44C300.359 198.263 291.383 258.524 332.543 300.909C353.033 322.006 378.246 333.789 405.47 334.99C406.224 335.023 407.329 335.056 408.724 335.056C420.18 335.056 451.624 332.865 477.147 310.751C494.615 295.622 506.402 273.159 510.331 247.514C513.194 228.826 511.964 209.34 506.785 190.164L510.304 189.609C514.848 188.896 517.871 184.527 516.931 180.031ZM196.411 293.094C177.958 312.091 155.364 322.706 131.063 323.775C127.267 323.94 93.2042 324.752 67.2504 302.276C41.3891 279.872 31.2497 241.282 39.0676 201.953C42.5003 184.692 55.7418 171.133 72.9517 167.265C94.236 162.486 116.003 160.618 137.975 161.694C166.819 163.113 194.89 169.582 221.452 180.936C224.528 193.999 235.553 252.788 196.404 293.1L196.411 293.094ZM469.779 302.276C443.832 324.759 409.769 323.947 405.966 323.775C381.666 322.706 359.072 312.098 340.619 293.094C301.476 252.788 312.502 193.992 315.571 180.929C342.14 169.582 370.204 163.113 399.048 161.687C421.013 160.604 442.781 162.479 464.058 167.252C481.275 171.113 494.529 184.685 497.962 201.96C505.773 241.282 495.634 279.865 469.779 302.269V302.276Z" fill="#ED3A65"/>
</svg>
