<svg width="371" height="376" viewBox="0 0 371 376" fill="none" xmlns="http://www.w3.org/2000/svg">
<path d="M356.468 289.431C313.576 373.812 200.606 375.219 185.468 375.174C167.31 375.123 58.6576 372.464 15.4872 289.253C-22.5335 215.976 19.9057 137.421 32.0097 115.018C40.6775 98.9712 95.4264 -2.36578 188.881 0.0422188C275.588 2.27658 324.442 91.9848 336.985 115.018C350.999 140.752 392.917 217.731 356.472 289.427L356.468 289.431Z" fill="#F8C950"/>
<path d="M234.495 189.022C233.522 189.022 232.544 188.656 231.79 187.925C230.25 186.431 230.218 183.973 231.713 182.433C237.333 176.648 252.978 163.082 276.825 161.976C304.684 160.679 323.166 177.302 328.17 182.428C329.668 183.964 329.636 186.422 328.101 187.921C326.566 189.419 324.107 189.387 322.609 187.852C318.181 183.315 301.823 168.597 277.186 169.735C256.108 170.708 242.258 182.725 237.287 187.843C236.524 188.624 235.514 189.022 234.5 189.022H234.495Z" fill="#423D56"/>
<path d="M50.5363 192.453C49.563 192.453 48.5852 192.088 47.8313 191.357C46.2914 189.863 46.2594 187.404 47.7536 185.865C53.3738 180.08 69.0189 166.514 92.8658 165.408C120.725 164.11 139.207 180.733 144.211 185.86C145.709 187.395 145.677 189.854 144.142 191.352C142.607 192.851 140.148 192.819 138.65 191.284C134.222 186.746 117.864 172.029 93.2268 173.167C72.1488 174.14 58.2994 186.157 53.3281 191.275C52.565 192.056 51.5552 192.453 50.5408 192.453H50.5363Z" fill="#423D56"/>
<path d="M129.66 225.165C126.055 225.165 123.564 228.82 124.931 232.156C134.188 254.7 158.14 270.761 186.227 270.761C214.314 270.761 238.271 254.7 247.524 232.156C248.895 228.82 246.4 225.165 242.795 225.165H129.651H129.66Z" fill="#ED3A65"/>
<path d="M148.797 228.007H223.664C223.664 235.505 217.578 241.591 210.08 241.591H162.381C154.883 241.591 148.797 235.505 148.797 228.007Z" fill="white"/>
</svg>
